<svg width="24" height="24" viewBox="0 0 24 24" fill="none" xmlns="http://www.w3.org/2000/svg">
<path fill-rule="evenodd" clip-rule="evenodd" d="M13 1H11V2.055C7.863 2.4 5 4.382 5 8V16.5L3 18V20H21V18L19 16.5V8C19 4.382 16.137 2.4 13 2.055V1ZM14 21H10C10 21.5304 10.2107 22.0391 10.5858 22.4142C10.9609 22.7893 11.4696 23 12 23C12.5304 23 13.0391 22.7893 13.4142 22.4142C13.7893 22.0391 14 21.5304 14 21ZM11.997 4H12.003C13.4 4 14.7 4.405 15.6 5.09C16.445 5.736 17 6.66 17 8V17.5L17.667 18H6.333L7 17.5V8C7 6.66 7.555 5.735 8.4 5.09C9.3 4.406 10.599 4 11.997 4Z" fill="#17171B"/>
</svg>
