<svg width="24" height="24" viewBox="0 0 24 24" fill="none" xmlns="http://www.w3.org/2000/svg">
<path d="M22.4503 17.3503C22.2056 17.0896 21.3417 16.319 19.7536 15.2995C18.1537 14.271 16.9739 13.6298 16.6355 13.4803C16.6056 13.467 16.5728 13.4622 16.5404 13.4662C16.508 13.4703 16.4774 13.4831 16.4517 13.5032C15.9066 13.9284 14.9887 14.7093 14.9395 14.7515C14.6217 15.0238 14.6217 15.0238 14.3616 14.939C13.9041 14.789 12.4828 14.0343 11.2444 12.7931C10.0059 11.5518 9.21234 10.0954 9.06234 9.63838C8.97656 9.37775 8.97656 9.37775 9.24984 9.05994C9.29203 9.01072 10.0734 8.09291 10.4986 7.54822C10.5188 7.52257 10.5315 7.49191 10.5356 7.45954C10.5396 7.42716 10.5348 7.3943 10.5216 7.36447C10.372 7.02557 9.73078 5.84619 8.70234 4.24635C7.6814 2.65869 6.91171 1.79479 6.65109 1.5501C6.62717 1.52753 6.59761 1.51183 6.56552 1.50465C6.53343 1.49747 6.5 1.49909 6.46875 1.50932C5.55772 1.8224 4.67872 2.22188 3.84375 2.70229C3.03769 3.17086 2.27458 3.70967 1.56328 4.31244C1.53845 4.33355 1.51983 4.36102 1.50943 4.3919C1.49902 4.42279 1.49722 4.45592 1.50421 4.48775C1.60218 4.94432 2.07046 6.85025 3.52359 9.49025C5.00625 12.1846 6.03375 13.5651 8.21109 15.7349C10.3884 17.9048 11.8125 18.9942 14.5097 20.4768C17.1497 21.9299 19.0566 22.3987 19.5122 22.4957C19.5441 22.5027 19.5773 22.5008 19.6082 22.4904C19.6392 22.48 19.6667 22.4614 19.688 22.4367C20.2906 21.7254 20.8293 20.9623 21.2977 20.1562C21.778 19.3212 22.1775 18.4422 22.4906 17.5312C22.5006 17.5002 22.5022 17.467 22.4951 17.4352C22.488 17.4034 22.4725 17.3741 22.4503 17.3503Z" fill="#3DE0AB"/>
</svg>
