<svg width="20" height="20" viewBox="0 0 20 20" fill="none" xmlns="http://www.w3.org/2000/svg">
<path fill-rule="evenodd" clip-rule="evenodd" d="M19.9983 18.5842L14.3116 12.8976C15.3656 11.5425 16 9.84562 16 8.00002C16 3.58889 12.4111 0 8.00002 0C3.58889 0 0 3.58889 0 8.00002C0 12.4111 3.58889 16 8.00002 16C9.84562 16 11.5425 15.3656 12.8976 14.3116L18.5843 19.9983L19.9983 18.5842ZM8.00002 14C4.69139 14 2.00002 11.3086 2.00002 8.00002C2.00002 4.69139 4.69139 2.00002 8.00002 2.00002C11.3086 2.00002 14 4.69139 14 8.00002C14 11.3086 11.3086 14 8.00002 14Z" fill="#BCBEBF"/>
</svg>
