<svg width="24" height="24" viewBox="0 0 24 24" fill="none" xmlns="http://www.w3.org/2000/svg">
<path fill-rule="evenodd" clip-rule="evenodd" d="M21.9983 20.5842L16.3117 14.8976C17.3656 13.5425 18 11.8456 18 10C18 5.58889 14.4112 2 10 2C5.58892 2 2.00003 5.58889 2.00003 10C2.00003 14.4111 5.58892 18 10 18C11.8457 18 13.5425 17.3656 14.8976 16.3116L20.5843 21.9983L21.9983 20.5842ZM10 16C6.69142 16 4.00005 13.3086 4.00005 10C4.00005 6.69139 6.69142 4.00002 10 4.00002C13.3086 4.00002 16 6.69139 16 10C16 13.3086 13.3086 16 10 16Z" fill="#00A270"/>
</svg>
