<svg width="48" height="48" viewBox="0 0 48 48" fill="none" xmlns="http://www.w3.org/2000/svg">
<path d="M20.498 3.292C21.2753 3.17649 22.0668 3.37057 22.7025 3.83251C23.3382 4.29445 23.7673 4.98737 23.8975 5.76232C24.0277 6.53727 23.8487 7.33237 23.3988 7.9767C22.949 8.62103 22.2643 9.06314 21.492 9.208C17.9979 9.80055 14.8265 11.6111 12.5399 14.3187C10.2533 17.0263 8.99925 20.456 9 24C9 27.9782 10.5804 31.7936 13.3934 34.6066C16.2064 37.4196 20.0218 39 24 39V45C12.402 45 3 35.6 3 24C3 13.71 10.452 4.98 20.498 3.292Z" fill="url(#paint0_linear_175_1023)"/>
<path d="M33.784 8.59598C34.0471 8.30248 34.3654 8.0637 34.7208 7.89328C35.0763 7.72287 35.4618 7.62416 35.8553 7.6028C36.2489 7.58144 36.6428 7.63785 37.0146 7.7688C37.3864 7.89975 37.7287 8.10268 38.022 8.36598C40.2199 10.334 41.9776 12.7439 43.18 15.438C44.3825 18.1321 45.0027 21.0497 45 24C45 35.6 35.598 45 24 45V39C27.0363 39 30.0012 38.0786 32.5026 36.3576C35.004 34.6365 36.9243 32.1968 38.0095 29.3611C39.0947 26.5253 39.2937 23.427 38.5803 20.4756C37.8669 17.5243 36.2746 14.859 34.014 12.832C33.4218 12.3007 33.0649 11.556 33.0218 10.7616C32.9787 9.96723 33.2528 9.18824 33.784 8.59598Z" fill="url(#paint1_linear_175_1023)"/>
<defs>
<linearGradient id="paint0_linear_175_1023" x1="1053" y1="223.274" x2="1053" y2="3834.75" gradientUnits="userSpaceOnUse">
<stop stop-color="#3DE0AB"/>
<stop offset="1" stop-color="#3DE0AB" stop-opacity="0.55"/>
</linearGradient>
<linearGradient id="paint1_linear_175_1023" x1="1074" y1="577.599" x2="1074" y2="3267.15" gradientUnits="userSpaceOnUse">
<stop stop-color="#3DE0AB" stop-opacity="0"/>
<stop offset="1" stop-color="#3DE0AB" stop-opacity="0.55"/>
</linearGradient>
</defs>
</svg>
