<svg width="24" height="24" viewBox="0 0 24 24" fill="none" xmlns="http://www.w3.org/2000/svg">
<path d="M12 2.5C12.7022 2.5 13.283 2.74002 13.7715 3.22852C14.26 3.71702 14.5 4.29776 14.5 5V11C14.5 11.7022 14.26 12.283 13.7715 12.7715C13.283 13.26 12.7022 13.5 12 13.5C11.2978 13.5 10.717 13.26 10.2285 12.7715C9.74002 12.283 9.5 11.7022 9.5 11V5C9.5 4.29776 9.74002 3.71702 10.2285 3.22852C10.717 2.74002 11.2978 2.5 12 2.5ZM11.5 17.4883L11.0664 17.4297C9.45359 17.2125 8.13194 16.4966 7.0791 15.2734C6.13383 14.1752 5.61599 12.9227 5.51855 11.5H6.52148C6.62856 12.8044 7.15946 13.9417 8.10938 14.8916C9.17873 15.961 10.4851 16.5007 12 16.5C13.5147 16.4993 14.8217 15.9591 15.8916 14.8906C16.8421 13.9413 17.3734 12.8043 17.4795 11.5H18.4814C18.384 12.9227 17.8662 14.1752 16.9209 15.2734C15.8681 16.4966 14.5464 17.2125 12.9336 17.4297L12.5 17.4883V20.5H11.5V17.4883Z" fill="#E0E0E0" stroke="#E0E0E0"/>
</svg>
