<svg width="20" height="20" viewBox="0 0 20 20" fill="none" xmlns="http://www.w3.org/2000/svg">
<path fill-rule="evenodd" clip-rule="evenodd" d="M19.9983 18.5842L14.3117 12.8976C15.3656 11.5425 16 9.84562 16 8.00002C16 3.58889 12.4112 0 8.00005 0C3.58892 0 3.05176e-05 3.58889 3.05176e-05 8.00002C3.05176e-05 12.4111 3.58892 16 8.00005 16C9.84566 16 11.5425 15.3656 12.8976 14.3116L18.5843 19.9983L19.9983 18.5842ZM8.00005 14C4.69142 14 2.00005 11.3086 2.00005 8.00002C2.00005 4.69139 4.69142 2.00002 8.00005 2.00002C11.3086 2.00002 14 4.69139 14 8.00002C14 11.3086 11.3086 14 8.00005 14Z" fill="black"/>
</svg>
