<svg width="58" height="58" viewBox="0 0 58 58" fill="none" xmlns="http://www.w3.org/2000/svg">
<path d="M23.6105 14.1973C18.7666 15.4724 16.1897 22.9308 19.7939 26.757L19.8423 27.0742C19.9525 27.9646 20.1609 28.8382 20.3195 29.7281C20.6684 31.4776 21.0023 33.2276 21.3689 34.9767C21.8615 37.2178 22.3377 39.4594 23.1325 41.6236C23.3563 42.2271 23.611 42.8311 24.0084 43.3386C24.2295 43.5933 24.5009 43.8797 24.8825 43.7995C30.8338 39.2764 28.9923 35.7474 28.8328 31.6313L29.2433 31.7386L28.7141 29.2061C28.3705 27.3203 28.0043 25.4386 27.6157 23.5615C27.1399 21.3344 26.6623 19.1096 25.9636 16.9459C25.7574 16.3732 25.534 15.8036 25.2486 15.2766C25.0424 14.8158 24.6582 14.4352 24.215 14.1973H23.6105ZM41.8157 14.1973C36.7398 15.9146 33.9327 20.6838 38.0004 26.8404L38.0503 27.1036C38.0579 27.1198 38.0622 27.1374 38.063 27.1553L38.1232 27.4815C38.8786 31.5524 39.5868 35.6242 40.6711 39.6203C41.02 40.7336 41.3205 41.8619 41.9104 42.8783C42.1968 43.2933 42.5317 43.848 43.1185 43.7854C48.6434 43.7995 48.8963 37.289 47.3955 31.9158L47.2333 30.7309C47.1846 30.444 47.1328 30.1576 47.0779 29.8718C46.6315 27.3932 46.1562 24.8965 45.6315 22.4305C45.2341 20.6045 44.8046 18.7584 44.215 16.9776C43.9771 16.3274 43.7393 15.6427 43.3564 15.0383C43.1185 14.7034 42.8638 14.3867 42.4972 14.1973H41.8157ZM0.555531 30.0802C0.363859 30.0802 0.174906 30.1119 0 30.1264C0.492547 30.2379 0.953375 30.5098 1.36572 30.8106C1.90766 31.2887 2.32227 31.8923 2.65486 32.528C3.2122 33.5761 3.57606 34.7071 3.87966 35.8521C4.46645 38.1395 4.57792 40.5555 5.53175 42.7351C5.72297 43.069 5.91509 43.4356 6.24723 43.6413C6.3442 43.7048 6.43845 43.7859 6.55037 43.7682C18.1803 43.4315 13.8321 35.3016 10.3947 31.2189L10.3013 31.1138C10.0009 30.7304 9.60217 30.4123 9.15811 30.2379C8.8382 30.0952 8.50652 30.126 8.18842 30.0802H0.555531Z" fill="#9DEECF"/>
<path d="M15.438 14.176C15.3582 14.176 15.2785 14.1801 15.1996 14.1973C14.8022 14.3718 14.5326 14.7211 14.3237 15.0705C13.9599 15.7062 13.7052 16.4072 13.4818 17.0887C13.021 18.5201 12.6721 20 12.3223 21.4627C11.8932 23.3387 11.5103 25.245 11.146 27.1372C10.923 28.4254 10.6353 29.7141 10.4441 31.0028C10.2855 32.1628 10.0145 33.3065 9.77663 34.4661C9.39601 36.2151 9.01539 37.9814 8.52057 39.7142C8.20293 40.7962 7.87034 41.876 7.34381 42.8788C7.15155 43.2281 6.88598 43.5317 6.56534 43.7687C7.04293 43.8167 7.50331 43.7678 7.98181 43.7855H14.9762C15.1507 43.7995 15.2794 43.6736 15.3909 43.5621C15.8979 43.1013 16.1521 42.4338 16.4244 41.813C16.9949 40.3046 17.3787 38.7431 17.7426 37.1866C18.5233 33.7991 19.1423 30.3979 19.7454 26.9795C19.9375 25.9464 20.1437 24.8965 20.3671 23.8484C20.8596 21.5407 21.3522 19.2365 22.0681 16.9945C22.3228 16.264 22.5919 15.5164 23.007 14.8467C23.1502 14.5775 23.3699 14.3718 23.6105 14.1806H15.6772C15.597 14.1806 15.5177 14.176 15.438 14.176ZM37.657 14.191C36.2659 14.1887 34.8748 14.1887 33.4846 14.1973C32.9272 14.3867 32.6259 14.9269 32.3713 15.4054C31.7192 16.757 31.3526 18.2338 31.0205 19.6964C30.2099 23.0514 29.5719 26.4389 28.9678 29.8401C28.4608 32.4796 27.966 35.119 27.3307 37.7277C26.9809 39.1278 26.6306 40.5416 26.1064 41.8928C25.82 42.577 25.5345 43.3237 24.9445 43.7995C25.0877 43.8163 25.2481 43.8163 25.3913 43.8163C28.0457 43.8163 30.7019 43.834 33.3559 43.8163C33.7537 43.6251 34.0089 43.2127 34.2318 42.8317C34.6759 41.9875 34.9622 41.0826 35.2318 40.1917C35.6614 38.7436 35.9958 37.2668 36.3139 35.8037C36.9309 32.8839 37.4928 29.9527 37.9995 27.0117C38.5406 24.0224 39.1278 21.0486 39.9552 18.1395C40.2733 17.0747 40.5905 16.0089 41.1315 15.0383C41.306 14.7211 41.576 14.4493 41.8307 14.1973C40.4396 14.1973 39.0481 14.1928 37.657 14.191ZM56.8006 30.0757C56.3991 30.0798 55.9972 30.0875 55.6007 30.0803H49.8614C49.1944 30.0485 48.5415 30.3666 48.0947 30.8596C47.8251 31.1138 47.6824 31.4786 47.4762 31.7645C47.2206 32.1166 47.1259 32.5434 46.9832 32.9413C46.5369 34.3582 46.2505 35.8354 46.0126 37.2981C45.8225 38.4495 45.5518 39.5862 45.2024 40.6997C44.9473 41.5271 44.6129 42.3373 44.0891 43.0215C43.834 43.3559 43.4996 43.5934 43.1185 43.7687C43.2789 43.7995 43.4542 43.7995 43.6282 43.7995C46.2509 43.7846 48.8732 43.8172 51.5126 43.7855C52.3568 43.1185 52.8493 42.1166 53.1674 41.1148C53.645 39.6829 53.645 38.1568 53.8661 36.6945C54.0891 35.2001 54.3587 33.6735 55.1227 32.3368C55.6097 31.5045 56.3426 30.8434 57.2206 30.4446C57.4757 30.3186 57.7621 30.2547 58 30.0957C57.6005 30.0754 57.2005 30.0688 56.8006 30.0757Z" fill="#3DE0AB"/>
<rect width="2.41667" height="7.25" transform="translate(48.4166 7)" fill="#3DE0AB"/>
<rect width="2.41667" height="7.25" transform="translate(46 11.8334) rotate(-90)" fill="#3DE0AB"/>
</svg>
